<svg xmlns="http://www.w3.org/2000/svg" viewBox="0 0 80 80" width="40px" height="40px"><path fill="#ffeea3" d="M40 64.542L15.94 77.086 20.456 50.359 1.069 31.375 27.919 27.404 40 3.122 52.087 27.404 78.931 31.375 59.551 50.359 64.06 77.092z"/><path fill="#ba9b48" d="M40,4.245l11.522,23.148l0.233,0.467l0.516,0.076l25.59,3.786L59.387,49.82l-0.373,0.366L59.1,50.7 L63.4,76.183L40.462,64.219L40,63.978l-0.462,0.241L16.601,76.178l4.304-25.477l0.087-0.515l-0.373-0.366L2.139,31.723 l25.596-3.786l0.516-0.076l0.233-0.467L40,4.245 M40,2L27.588,26.947L0,31.028l19.919,19.506l-4.639,27.46L40,65.106L64.72,78 l-4.634-27.466L80,31.028l-27.582-4.081L40,2L40,2z"/></svg>